<?xml version="1.0" encoding="utf-8"?>
<!-- Generator: Adobe Illustrator 23.0.4, SVG Export Plug-In . SVG Version: 6.00 Build 0)  -->
<svg version="1.1" id="Layer_1" xmlns="http://www.w3.org/2000/svg" xmlns:xlink="http://www.w3.org/1999/xlink" x="0px" y="0px"
	 viewBox="0 0 153.68 201" enable-background="new 0 0 153.68 201" xml:space="preserve">
<path fill="none" stroke="#000000" stroke-weight="1" stroke-miterlimit="10" d="M45.31,68.74c-0.62-0.64-1.25-1.39-1.98-2.04
	c-1.85-1.62-3.17-3.6-4.13-5.83c-1.3-3.06-2.51-6.15-3-9.47c-0.18-1.24-0.65-2.36-1.26-3.45c-0.48-0.86-1.14-1.44-2.16-1.51
	c-0.18-0.01-0.37-0.03-0.55-0.09c-0.81-0.24-1.42-0.71-1.71-1.54c-0.18-0.52-0.36-1.04-0.57-1.62c-0.77-0.06-1.49-0.08-2.21-0.17
	c-0.64-0.08-1.11-0.37-1.36-1.06c-0.4-1.13-0.58-1.19-1.75-1.09c-0.3,0.03-0.6,0.1-0.95,0.16c-0.44-0.31-0.92-0.6-1.34-0.96
	c-0.81-0.71-0.84-1.16-0.22-2.22c0.06-0.1,0.09-0.22,0.19-0.46c-0.22-0.27-0.44-0.65-0.76-0.88c-0.69-0.51-1.4-1.03-2.18-1.38
	c-1.21-0.55-1.65-1.59-1.99-2.73c-0.14-0.48,0.06-0.92,0.42-1.12c0.41-0.23,0.83-0.22,1.23,0.01c0.16,0.09,0.3,0.21,0.43,0.35
	c0.62,0.68,1.23,1.37,1.84,2.06c0.41,0.46,0.78,0.95,1.22,1.38c0.43,0.42,0.87,0.92,1.41,1.14c0.67,0.27,1.03-0.53,1.57-0.78
	c0.35-0.16,0.77-0.08,0.95,0.29c0.27,0.55,0.48,1.13,0.7,1.7c0.13,0.34,0.23,0.69,0.36,1.08c0.56,0.11,1.09,0.22,1.74,0.35
	c0.35,0.71,0.73,1.47,1.11,2.22c0.11,0.07,0.21,0.19,0.32,0.19c1.6,0.06,2.62,0.92,3.26,2.32c0.13,0.28,0.24,0.57,0.38,0.84
	c0.46,0.89,0.57,0.99,1.58,0.77c0.72-0.16,1.23,0.05,1.61,0.58c0.51,0.69,1.03,1.4,1.39,2.17c1.04,2.25,1.68,4.59,1.66,7.12
	c-0.02,2.05,0.58,4,1.37,5.89c0.19,0.45,0.44,0.88,0.63,1.34c0.71,1.71,1.85,2.88,3.92,3.15c0.66-0.27,1.1-0.91,1.44-1.65
	c0.66-1.45,1.34-2.9,2.03-4.34c0.18-0.39,0.38-0.8,0.67-1.1c1.46-1.5,2.92-2.99,4.44-4.42c0.95-0.9,2.04-1.49,3.47-1.42
	c0.76,0.04,1.54-0.35,2.3-0.59c0.22-0.07,0.47-0.24,0.57-0.44c0.72-1.45,2.14-1.97,3.44-2.64c0.05-0.03,0.12-0.04,0.17-0.06
	c1.15-0.56,1.41-1.15,1.09-2.38c-0.19-0.72-0.56-1.23-1.37-1.27c-1.41-0.06-2.4-0.82-3.19-1.91c-0.8-1.09-2.03-1.55-3.21-2.04
	c-0.75-0.31-1.49-0.54-1.92-1.31c-0.29-0.52-0.84-0.67-1.37-0.85c-0.64-0.21-1.25-0.49-1.87-0.76c-0.22-0.1-0.53-0.22-0.59-0.4
	c-0.36-1.02-1.26-1.27-2.13-1.59c-0.71-0.26-1.29-0.72-1.77-1.3c-0.48-0.58-1.09-1.01-1.79-1.26c-1.15-0.4-2.07-1.04-2.58-2.14
	c-0.66-0.16-1.26-0.31-1.86-0.45c-0.76-0.17-1.38-0.53-1.67-1.3c-0.3-0.8-0.86-1.13-1.71-1.11c-0.35,0.01-0.71-0.16-1.07-0.27
	c-0.71-0.21-1.18-0.64-1.3-1.4c-0.04-0.24-0.08-0.49-0.17-0.71c-0.16-0.4-0.72-0.71-1.06-0.48c-1.32,0.92-2.44,0.31-3.58-0.34
	c-0.05-0.03-0.08-0.09-0.19-0.22c0.06-0.4,0.18-0.88,0.2-1.35c0.03-0.82-0.53-1.33-1.28-1.14c-0.6,0.15-1.19,0.39-1.8,0.18
	c-0.92-0.32-1.91-0.5-2.72-1.33c0.22-0.34,0.45-0.68,0.68-1.02c0.22-0.34,0.2-0.69,0.07-1.06c-0.17-0.49-0.54-0.71-0.99-0.55
	c-0.17,0.06-0.35,0.14-0.5,0.24c-1.09,0.72-2.1,0.52-3.06-0.25c-0.33-0.26-0.66-0.53-1.04-0.83c0.12-0.5,0.28-0.96,0.34-1.44
	c0.09-0.77-0.49-1.28-1.26-1.17c-0.73,0.11-1.45,0.32-2.18,0.31c-2.47-0.04-3.51-1.34-4.1-3.72c-0.16-0.66,0.45-1.37,1.14-1.39
	c0.3-0.01,0.61,0.05,0.9,0.14c0.82,0.26,1.63,0.57,2.45,0.82c0.81,0.24,1.41,0.72,1.85,1.44c0.19,0.31,0.42,0.61,0.66,0.89
	c0.3,0.35,0.68,0.53,1.15,0.42c0.18-0.04,0.35-0.12,0.54-0.14c1.12-0.09,2.08,0.17,2.64,1.26c0.25,0.49,0.49,0.99,0.69,1.5
	c0.28,0.7,0.66,1.3,1.3,1.88c0.47-0.31,0.9-0.59,1.44-0.95c0.63,0.52,1.25,1.13,1.95,1.6c0.83,0.55,0.51,1.63,1.22,2.34
	c0.41-0.08,0.87-0.19,1.34-0.25c1.1-0.13,1.73,0.21,2.21,1.24c0.23,0.5,0.37,1.05,0.61,1.54c0.36,0.75,0.76,1.44,1.82,1.05
	c0.45-0.17,0.84,0.1,1.15,0.42c0.34,0.36,0.69,0.71,0.97,1.11c0.29,0.39,0.5,0.84,0.7,1.18c0.2,0.1,0.31,0.2,0.42,0.2
	c1.16-0.06,2.02,0.38,2.52,1.47c0.15,0.33,0.4,0.62,0.62,0.92c0.26,0.36,0.59,0.66,1.06,0.63c0.85-0.06,1.37,0.42,1.85,1.02
	c0.23,0.29,0.48,0.57,0.76,0.8c0.18,0.15,0.44,0.32,0.65,0.3c1.64-0.16,2.42,0.93,3.14,2.11c0.16,0.26,0.32,0.52,0.53,0.85
	c1.28-0.04,2.35,0.5,3.19,1.46c0.45,0.51,1,0.67,1.65,0.63c1.21-0.08,2.16,0.35,2.77,1.45c0.15,0.27,0.36,0.5,0.56,0.73
	c0.31,0.34,0.69,0.51,1.16,0.41c0.42-0.09,0.85-0.15,1.26-0.28c0.67-0.22,1.3-0.28,1.95,0.1c0.75,0.44,1.51,0.87,1.84,1.73
	c0.24,0.63,0.43,1.28,0.61,1.93c0.37,1.34,0.7,1.64,2.05,1.61c0.98-0.02,1.96-0.16,2.94-0.24c1.28-0.1,2.57-0.18,3.85-0.27
	c0.18-0.01,0.38,0.08,0.55,0.03c2.07-0.62,4.15-0.36,6.21-0.06c2.06,0.31,4.18,0.21,6.18,0.9c0.1,0.04,0.24-0.02,0.48-0.06
	c0.01-0.26,0.07-0.56,0.03-0.83c-0.2-1.09,0.15-2.08,0.6-3.03c0.56-1.17,1.5-1.76,2.82-1.66c0.43,0.03,0.85,0.09,1.31,0.14
	c0.68-0.44,1.19-1.05,1.61-1.74c0.29-0.47,0.59-0.94,0.89-1.4c0.32-0.48,0.72-0.85,1.33-0.9c0.96-0.07,1.6-0.57,1.97-1.44
	c0.35-0.84,0.88-1.42,1.82-1.67c0.34-0.09,0.63-0.54,0.86-0.89c0.5-0.77,0.95-1.58,1.45-2.43c0.33-0.09,0.72-0.12,1.01-0.31
	c0.56-0.35,1.21-0.7,1.57-1.22c0.54-0.76,1.04-1.5,1.84-2.03c0.48-0.32,0.71-0.85,0.78-1.42c0.08-0.64,0.47-0.97,1.05-1.14
	c0.12-0.04,0.23-0.09,0.34-0.13c0.87-0.31,1.46-0.85,1.65-1.81c0.22-1.11,0.8-1.9,2.03-2.08c0.8-0.11,1.28-0.69,1.57-1.42
	c0.18-0.46,0.39-0.92,0.47-1.39c0.12-0.73,0.53-1.22,1.11-1.64c0.49,0.04,0.97,0.12,1.46,0.12c0.66,0,1.03-0.3,1.16-0.96
	c0.18-0.9,0.31-1.81,0.48-2.72c0.14-0.79,0.43-1.04,1.25-1.06c0.67-0.01,1.34,0.02,1.91,0.02c0.6-0.5,0.52-1.08,0.51-1.62
	c-0.02-0.95,0.19-1.84,0.57-2.69c0.17-0.38,0.47-0.69,0.76-1.1c0.51,0.18,0.95,0.36,1.41,0.5c0.42,0.12,0.74-0.09,0.9-0.46
	c0.14-0.33,0.18-0.71,0.27-1.07c0.29-1.23,0.97-2.25,1.77-3.2c0.7-0.84,1.62-1.31,2.68-1.5c1.24-0.23,2.01,0.4,2.09,1.67
	c0.08,1.23-0.25,2.28-1.16,3.18c-0.94,0.92-1.91,1.72-3.25,1.97c-0.39,0.07-0.75,0.34-1.23,0.57c0.35,0.56,0.63,1.01,0.91,1.47
	c-0.92,1.76-2.14,2.56-4.02,2.68c-0.3,0.02-0.61,0.06-0.9,0.14c-0.45,0.13-0.67,0.61-0.47,1.03c0.1,0.22,0.29,0.4,0.4,0.61
	c0.08,0.15,0.12,0.34,0.19,0.53c-0.66,0.84-1.41,1.58-2.42,1.93c-0.91,0.31-1.85,0.49-2.86,0.75c0.06,0.49,0.06,0.92,0.18,1.32
	c0.2,0.7-0.06,1.21-0.58,1.61c-0.74,0.58-1.55,0.97-2.5,1.11c-1,0.14-1.32,0.37-1.3,1.22c0.02,1.08-0.55,1.56-1.4,1.91
	c-0.23,0.1-0.46,0.18-0.69,0.26c-0.8,0.27-1.43,0.66-1.52,1.63c-0.06,0.67-0.59,1.09-1.14,1.36c-0.75,0.38-1.27,0.89-1.62,1.67
	c-0.38,0.86-1,1.55-1.97,1.83c-0.5,0.14-0.83,0.49-1.1,0.92c-0.77,1.22-1.8,2.17-3.08,2.84c-0.16,0.09-0.38,0.15-0.46,0.29
	c-0.66,1.11-1.81,1.64-2.75,2.42c-0.28,0.23-0.62,0.47-0.78,0.78c-0.87,1.72-2.47,2.68-3.87,3.85c-0.66,0.55-1.3,1.12-1.92,1.72
	c-0.49,0.47-0.87,1.08-1.42,1.44c-1.62,1.06-1.37,2.55-1.18,4.04c2.74,1.06,2.74,1.06,4.29,2.81c0.12,0.02,0.25,0.09,0.35,0.06
	c2.08-0.66,3.73,0.22,5.24,1.5c0.7,0.59,1.32,1.29,1.92,2c1.99,2.36,3.8,4.83,4.93,7.74c0.11,0.28,0.27,0.56,0.44,0.81
	c0.49,0.7,1.03,0.86,1.74,0.42c0.83-0.52,1.67-1.07,2.38-1.74c0.92-0.88,1.34-2.09,1.42-3.32c0.22-3.37,0.32-6.75,0.14-10.13
	c-0.05-0.98-0.19-1.94-0.08-2.92c0.1-0.87,0.4-1.68,0.91-2.39c0.55-0.77,1.12-0.85,2.05-0.37c0.21,0.11,0.43,0.19,0.67,0.3
	c1.25-1.1,1.39-2.96,2.94-3.89c0.21,0.29,0.41,0.58,0.63,0.84c0.41,0.48,0.91,0.38,1.1-0.24c0.23-0.76,0.4-1.55,0.61-2.32
	c0.22-0.79,0.53-1.48,1.44-1.75c0.69-0.2,1.07-0.79,1.29-1.47c0.13-0.41,0.27-0.82,0.47-1.2c0.34-0.63,1.08-0.67,1.5-0.1
	c0.21,0.29,0.37,0.62,0.54,0.89c0.77,0.03,1.06-0.48,1.33-0.95c1.05-1.76,2.62-3.09,3.8-4.74c0.06-0.08,0.22-0.08,0.42-0.15
	c0.35,0.74,0.72,1.5,1.13,2.36c-1.37,1.34-2.72,2.74-4.67,3.37c-0.36,0.12-0.64,0.49-1.05,0.81c0.52,0.45,0.92,0.8,1.43,1.24
	c-1.29,1.09-2.84,1.57-4.11,2.65c0.01,0.24,0.02,0.54,0.04,0.83c0.06,0.82-0.16,1.15-0.92,1.29c-0.42,0.08-0.86,0.06-1.28,0.12
	c-0.56,0.08-0.88,0.4-0.77,1.02c0.14,0.8-0.21,1.17-0.86,1.37c-1.11,0.35-2.2,0.76-3.4,0.79c-1.11,0.04-1.52,0.45-1.74,1.54
	c-0.11,0.54-0.13,1.1-0.13,1.65c0.03,2.28,0.11,4.55,0.13,6.82c0,0.61-0.12,1.22-0.22,1.82c-0.42,2.56-1.22,5.01-2.33,7.36
	c-0.32,0.68-0.77,1.23-1.36,1.71c-0.86,0.69-1.66,1.45-2.43,2.24c-0.23,0.23-0.36,0.65-0.37,0.99c-0.02,0.42,0.12,0.84,0.21,1.26
	c0.37,1.8,0.93,3.58,0.79,5.45c-0.04,0.55,0.21,0.94,0.65,1.24c0.1,0.07,0.2,0.15,0.32,0.19c2.93,1.13,4.14,3.69,5.24,6.33
	c0.52,1.25,0.92,2.54,1.05,3.9c0.08,0.83,0.51,1.27,1.32,1.56c2.46,0.89,4.62,2.26,6.39,4.24c1.04,1.17,1.8,2.5,2.45,3.89
	c1.55,3.35,2.99,6.75,4.48,10.13c0.41,0.92,0.5,1.87-0.01,2.86c1.51,0.61,2.94,0.61,4.39,1.09c0.04,0.05,0.19,0.17,0.26,0.33
	c0.34,0.82,0.95,1.22,1.81,1.39c1.34,0.27,2.58,0.71,3.52,1.83c0.51,0.6,1.33,0.56,2.07,0.56c0.55,0,1.11-0.07,1.66-0.05
	c0.28,0.01,0.56,0.15,0.78,0.21c0.22,0.56-0.19,0.75-0.38,1.04c-0.45,0.69-0.41,1.26,0.14,1.81c0.09,0.09,0.18,0.17,0.28,0.24
	c1.51,1.06,3.02,2.11,4.52,3.17c0.25,0.17,0.46,0.39,0.71,0.6c-0.1,0.61-0.27,1.09-0.94,1.34c-1.87-0.84-3.76-1.72-5.21-3.31
	c-0.16-0.18-0.35-0.34-0.54-0.5c-0.48-0.4-0.95-0.31-1.18,0.24c-0.14,0.33-0.22,0.68-0.3,0.95c-0.47,0.23-0.73-0.02-0.9-0.24
	c-0.76-0.96-1.48-1.94-2.34-3.08c-0.09-0.01-0.38-0.08-0.68-0.08c-0.78,0.01-1.28-0.35-1.57-1.05c-0.07-0.17-0.1-0.36-0.18-0.52
	c-0.33-0.63-0.69-0.89-1.34-0.62c-0.97,0.39-1.57,0.03-2.29-0.59c-0.92-0.8-1.98-1.46-3.03-2.1c-0.4-0.24-0.91-0.35-1.38-0.4
	c-0.62-0.06-1.01-0.37-1.33-0.86c-0.85-1.29-1.61-2.6-1.88-4.17c-0.31-1.81-0.8-3.59-1.04-5.42c-0.28-2.08-1.08-4.02-2.3-5.78
	c-1.01-1.45-2.34-2.3-4.08-2.63c-0.85,0.75-1.01,1.68-0.83,2.69c0.56,3.14,1.14,6.29,1.72,9.43c0.07,0.36,0.17,0.72,0.2,1.09
	c0.21,3.01,0.41,6.01,0.29,9.03c-0.07,1.6-0.09,3.2-0.09,4.8c0,1.91-0.26,3.8-0.41,5.69c-0.31,4.04-0.61,8.08-1.36,12.08
	c-0.14,0.72-0.41,1.41-0.68,2.28c0.45,0.73,0.91,1.59,1.47,2.39c1.03,1.44,1.57,3.05,1.81,4.78c0.03,0.24,0.17,0.52,0.09,0.72
	c-0.43,1.04-0.08,2.05-0.01,3.08c0.11,1.53,0.07,3.08,0.03,4.61c-0.03,1.13-0.51,2.16-1.03,3.13c-1.46,2.7-2.95,5.39-4.45,8.07
	c-0.78,1.39-1.58,2.77-2.41,4.13c-0.58,0.94-1.21,1.85-1.87,2.73c-0.56,0.76-1.35,1.24-2.2,1.64c-0.39,0.18-0.83,0.4-0.8,0.91
	c0.02,0.48,0.43,0.73,0.82,0.91c0.39,0.17,0.81,0.28,1.21,0.44c0.51,0.2,1.03,0.41,1.53,0.64c0.57,0.27,0.98,0.7,1.28,1.28
	c0.38,0.74-0.38,1.09-0.51,1.71c0.66,0.86,1.78,1.01,2.6,1.63c0.78,0.59,1.58,1.13,2.44,1.74c-0.3,0.55-0.55,1.02-0.76,1.42
	c0.2,0.71,0.74,0.69,1.21,0.77c1.16,0.21,2.05,0.77,2.63,1.99c-0.38,0.24-0.76,0.49-1.14,0.73c-0.12,0.54,0.28,0.81,0.62,1.03
	c1.02,0.65,1.71,1.57,2.31,2.59c0.53,0.9,1.13,1.75,1.76,2.71c-0.41,0.64-1.19,0.9-1.8,1.48c-0.63-0.82-0.87-1.71-1.16-2.57
	c-0.53-1.58-1.65-2.71-2.81-3.81c-0.21-0.2-0.51-0.29-0.87-0.49c-0.19,0.32-0.33,0.57-0.49,0.82c-0.32,0.49-0.85,0.59-1.19,0.15
	c-0.25-0.32-0.42-0.73-0.55-1.13c-0.34-1.05-0.62-2.12-0.95-3.17c-0.07-0.22-0.23-0.42-0.42-0.74c-0.51,0.24-0.97,0.45-1.52,0.71
	c-1.13-1.26-0.61-3.06-1.35-4.54c-0.49,0.18-0.92,0.35-1.46,0.55c-0.26-0.47-0.57-0.86-0.71-1.31c-0.33-1.02-0.93-1.87-1.62-2.66
	c-1.01-1.15-2.01-2.32-3.06-3.45c-0.49-0.53-0.55-1.08-0.31-1.7c0.13-0.34,0.29-0.69,0.52-0.97c0.57-0.73,1.17-1.42,1.77-2.12
	c0.6-0.7,1.25-1.36,1.82-2.08c1.91-2.41,3.85-4.79,5.68-7.26c1.42-1.93,2.79-3.91,3.97-5.98c1.02-1.8,1.27-3.83,0.75-5.89
	c-0.02-0.09-0.17-0.16-0.26-0.24c-1.77,0.58-1.77,0.58-3.74,0.06c-0.15,0.22-0.35,0.45-0.47,0.72c-0.79,1.74-1.58,3.47-2.33,5.23
	c-0.29,0.68-0.48,1.39-0.69,2.1c-0.3,1.01-0.73,1.94-1.32,2.83c-1.02,1.53-1.97,3.12-2.95,4.68c-2.66,4.2-6.23,7.4-10.61,9.74
	c-3.93,2.1-8.09,3.59-12.36,4.79c-1.47,0.41-3,0.65-4.52,0.89c-0.99,0.15-1.95,0.12-2.57-0.96c-0.39-0.68-1.07-0.72-1.79-0.42
	c-0.79,0.34-1.58,0.68-2.4,0.91c-2.41,0.68-4.75,0.33-7.02-0.62c-1.98-0.83-3.97-1.65-5.96-2.47c-0.28-0.12-0.61-0.18-0.84-0.37
	c-1.81-1.51-4.03-2.35-5.99-3.62c-3.03-1.96-5.58-4.42-7.62-7.41c-1.14-1.68-2.38-3.3-3.44-5.02c-1.35-2.2-2.62-4.45-3.83-6.73
	c-0.66-1.25-1.05-2.63-1.17-4.05c-0.02-0.24-0.01-0.5-0.05-0.73c-0.15-0.77-0.99-1.05-1.55-0.5c-0.26,0.25-0.43,0.59-0.62,0.9
	c-0.35,0.59-0.78,0.85-1.53,0.69c-1.1-0.23-1.29-0.11-1.61,0.92c-0.59,1.87-0.65,3.73,0.19,5.57c0.69,1.53,1.63,2.88,2.64,4.21
	c1.64,2.17,3.64,4.01,5.47,6c1.33,1.45,2.59,2.96,3.86,4.47c0.63,0.75,1.23,1.54,1.78,2.35c0.8,1.16,0.77,1.92-0.05,3.01
	c-0.81,1.08-1.7,2.11-2.46,3.22c-0.48,0.7-0.83,1.5-1.18,2.28c-0.34,0.76-0.67,1.44-1.66,1.49c-0.47,0.02-0.74,0.42-0.88,0.85
	c-0.14,0.41-0.3,0.82-0.36,1.24c-0.19,1.27-0.36,2.55-0.49,3.83c-0.09,0.98-0.48,1.76-1.28,2.41c-0.4-0.15-0.79-0.29-1.24-0.46
	c-1.11,0.99-1.65,2.26-1.83,3.7c-0.11,0.85-0.13,1.71-0.19,2.57c-0.04,0.55-0.07,1.11-0.16,1.65c-0.07,0.47-0.53,0.77-0.96,0.6
	c-0.68-0.26-1.4-0.45-2.01-1.07c1.1-2.59,2.34-5.11,3.51-7.55c-0.22-0.5-0.51-0.5-0.82-0.4c-0.48,0.15-0.84,0-1.1-0.47
	c0.12-0.99,0.57-1.83,1.23-2.59c0.6-0.7,1.13-1.45,1.67-2.2c0.4-0.56,0.73-1.15,0.45-1.97c1.08-0.57,2.1-1.11,3.15-1.66
	c0.06-0.31,0.13-0.6,0.19-0.9c0.16-0.86,0.65-1.36,1.49-1.69c1.86-0.73,2.04-0.98,2.84-2.87c-0.09-0.52-0.51-0.67-0.92-0.77
	c-2.27-0.55-3.63-2.21-4.91-3.97c-0.83-1.15-1.58-2.35-2.41-3.49c-2.37-3.27-3.81-7-5.27-10.72c-0.38-0.97-0.74-1.95-1.2-2.89
	c-0.26-0.53-0.39-1.06-0.25-1.6c0.22-0.82,0.33-1.69,0.89-2.4c0.58-0.72,0.78-1.57,0.48-2.43c-0.24-0.68-0.04-1.2,0.26-1.75
	c0.6-1.07,1.23-2.13,1.82-3.21c0.71-1.29,1.12-2.73,2.04-3.92c0.22-0.28,0.25-0.85,0.15-1.22c-0.82-2.9-1.25-5.89-1.77-8.85
	c-0.26-1.51-0.45-3.04-0.5-4.57c-0.07-2.27,0.02-4.55,0.03-6.83c0-0.37,0.03-0.75-0.03-1.11c-0.41-2.14-0.25-4.3-0.13-6.44
	c0.14-2.51,0.47-5.01,0.72-7.51c0.03-0.31,0.05-0.61,0.06-0.92c0.08-2.34,0.35-4.65,0.8-6.95c0.15-0.78,0.15-1.59,0.22-2.49
	c-0.59-0.37-1.19-0.78-1.81-1.15c-0.58-0.34-1.24-0.28-1.66,0.27c-0.77,1.03-1.7,1.97-2.07,3.25c-0.41,1.41-0.78,2.84-1.12,4.27
	c-0.16,0.65-0.3,1.33-0.31,1.99c-0.01,1.55-0.34,3.05-0.63,4.56c-0.07,0.36-0.17,0.72-0.21,1.08c-0.16,1.45-0.54,2.76-1.87,3.63
	c-0.34,0.22-0.55,0.65-0.84,1.02c-1.24-0.03-2.18,0.5-3.05,1.41c-0.87,0.9-1.97,1.43-3.33,1.26c-0.91-0.11-1.46,0.36-1.79,1.25
	c-0.55,1.47-0.74,1.52-2.33,1.24c-0.17-0.03-0.36-0.01-0.47-0.01c-0.61,0.35-0.48,0.89-0.54,1.36c-0.1,0.85-0.48,1.48-1.19,1.99
	c-1.07,0.77-1.17,0.83-2.19-0.06c-0.55-0.48-1.06-0.52-1.69-0.26c-0.75,0.31-1.44,0.74-1.95,1.36c-1.05,1.28-2.55,1.86-3.99,2.71
	c-0.43-0.51-0.81-0.97-1.26-1.5c0.28-0.28,0.45-0.54,0.69-0.68c1.66-0.94,3.33-1.85,5-2.78c0.48-0.26,1.05-0.41,1.32-1.1
	c-0.15-0.37-0.38-0.8-0.5-1.26c-0.23-0.89,0.36-1.62,1.27-1.59c0.24,0.01,0.49,0.07,0.72,0.13c1,0.28,1.91,0.05,2.46-0.8
	c0.53-0.81,1.29-1.05,2.06-0.94c1.33,0.18,2.07-0.37,2.66-1.45c0.52-0.96,1.47-1.27,2.51-1.25c1.01,0.02,1.96-0.13,2.84-0.63
	c0.66-0.38,0.92-0.71,0.59-1.33c-0.91-1.75-0.34-3.36,0.34-4.95c0.46-1.08,0.74-2.21,1.12-3.31c0.7-2.03,1.54-4.02,2.84-5.77
	c0.62-0.84,1.23-1.7,1.8-2.57c0.46-0.69,1.05-1.17,1.77-1.57c0.8-0.45,1.6-0.95,2.26-1.57c0.83-0.78,1.78-1.3,2.82-1.7
	c0.34-0.13,0.7-0.23,1.05-0.36c0.51-0.18,0.83-0.54,0.86-1.09c0.04-0.83,0.35-1.54,0.83-2.21c0.21-0.29,0.28-0.67,0.4-1.02
	c0.49-1.49,1.28-2.8,2.36-3.92c0.77-0.79,1.6-1.52,2.46-2.21c0.68-0.54,1.09-1.15,0.93-2.04c-0.2-1.15,0.17-2.2,0.61-3.21
	C45.11,70.68,45.32,69.81,45.31,68.74z"/>
</svg>
