<?xml version="1.0" encoding="utf-8"?>
<!-- Generator: Adobe Illustrator 25.1.0, SVG Export Plug-In . SVG Version: 6.00 Build 0)  -->
<svg version="1.1" id="Layer_1" xmlns="http://www.w3.org/2000/svg" xmlns:xlink="http://www.w3.org/1999/xlink" x="0px" y="0px"
	 viewBox="0 0 52.35 55.11" style="enable-background:new 0 0 52.35 55.11;" xml:space="preserve">
<style type="text/css">
	.st0{fill:none;stroke:#231F20;stroke-width:0.5;stroke-miterlimit:10;}
</style>
<path class="st0" d="M49.44,41.95c0.86,0.55,1.69,1.08,2.56,1.63c-0.08,0.12-0.14,0.22-0.21,0.31c-4.39,5.98-10.28,9.5-17.6,10.59
	c-6.02,0.89-11.87,0.3-17.42-2.32C10.78,49.33,6.15,45,2.93,39.21c-1.72-3.08-2.56-6.43-2.67-9.95C0.04,22.22,2.46,16.1,7.02,10.82
	c4.86-5.61,11.03-8.97,18.34-10.16c5.32-0.86,10.52-0.43,15.53,1.68c2.36,1,4.5,2.34,6.25,4.24c1.3,1.41,2.24,3.01,2.57,4.94
	c0.43,2.48-0.48,4.75-2.45,6.01c-0.18,0.12-0.36,0.23-0.56,0.31c-0.28,0.1-0.36,0.29-0.38,0.57c-0.35,3.73-1.13,7.36-2.27,10.93
	c-0.94,2.94-2.12,5.77-3.82,8.36c-1.26,1.92-2.75,3.63-4.78,4.78c-1.71,0.97-3.54,1.35-5.48,1.02c-2.28-0.39-3.78-1.81-4.8-3.8
	c-1.14-2.24-1.54-4.65-1.43-7.14c0.12-2.82,0.93-5.46,2.14-7.99c1.55-3.24,3.42-6.28,5.84-8.94c0.62-0.69,2.02-2.03,1.97-2
	c-0.13,0.05-0.25,0.1-0.38,0.16c-1.38,0.6-2.75,1.21-4.13,1.79c-0.98,0.41-2.01,0.68-3.08,0.71c-0.3,0.01-0.45,0.12-0.55,0.42
	c-0.85,2.58-1.73,5.15-2.6,7.72c-0.03,0.1-0.07,0.2-0.12,0.34c-0.38-0.24-0.74-0.46-1.08-0.72c-0.06-0.05-0.05-0.25-0.02-0.37
	c0.41-1.54,0.88-3.07,1.22-4.62c0.45-2.13,0.54-4.3,0.58-6.47c0-0.23,0.01-0.45,0.02-0.68c0-0.03,0.02-0.07,0.04-0.14
	c0.1,0.02,0.2,0.03,0.3,0.06c3.33,1.1,6.69,0.93,10.05,0.2c0.57-0.12,1.13-0.28,1.69-0.44c0.25-0.07,0.37-0.02,0.45,0.23
	c0.13,0.43,0.3,0.85,0.43,1.29c0.03,0.1,0,0.27-0.06,0.33c-2.24,2.01-3.64,4.57-4.78,7.29c-1.64,3.93-2.65,8.02-3,12.27
	c-0.14,1.73-0.14,3.45,0.34,5.14c0.2,0.71,0.5,1.37,1.02,1.9c1.15,1.17,2.54,1.21,3.98,0.73c1.41-0.47,2.48-1.44,3.44-2.54
	c1.62-1.87,2.77-4.01,3.74-6.26c1.42-3.3,2.43-6.72,2.9-10.28c0.1-0.78,0.14-1.57,0.17-2.35c0.03-0.7-0.16-0.87-0.86-0.95
	c-2.31-0.24-4.21-2.04-4.52-4.34c-0.05-0.38-0.02-0.8,0.08-1.16c0.28-0.96,0.67-1.86,1.43-2.59c1.04-1,1.03-1.79,0.08-2.89
	c-0.91-1.05-2.06-1.76-3.31-2.33c-5.67-2.58-13.5-1.84-18.51,3.29c-1.4,1.43-2.33,3.15-3.08,4.98c-1.09,2.66-1.69,5.45-2.03,8.3
	c-0.27,2.3-0.35,4.61-0.25,6.92c0.16,3.63,0.63,7.21,1.75,10.69c0.78,2.4,1.86,4.65,3.62,6.5c2.08,2.19,4.6,3.68,7.52,4.39
	c6.89,1.68,13.17,0.29,18.84-3.95c1.5-1.13,2.83-2.44,4.05-3.87C49.19,42.23,49.3,42.11,49.44,41.95"/>
</svg>
